<mxfile host="Electron" modified="2024-04-08T09:24:57.858Z" agent="Mozilla/5.0 (Windows NT 10.0; Win64; x64) AppleWebKit/537.36 (KHTML, like Gecko) draw.io/24.1.0 Chrome/120.0.6099.109 Electron/28.1.0 Safari/537.36" etag="ExQHfmrXbGqVyoAiCaHZ" version="24.1.0" type="device">
  <diagram name="第 1 页" id="TtEnUWGyxalk5Dwze5Hi">
    <mxGraphModel dx="1562" dy="917" grid="1" gridSize="10" guides="1" tooltips="1" connect="1" arrows="1" fold="1" page="1" pageScale="1" pageWidth="827" pageHeight="1169" math="0" shadow="0">
      <root>
        <mxCell id="0" />
        <mxCell id="1" parent="0" />
        <mxCell id="j9Q-AicPVGP4m09qeH4A-1" value="Scheduler" style="rounded=1;whiteSpace=wrap;html=1;fillColor=#dae8fc;strokeColor=#6c8ebf;" vertex="1" parent="1">
          <mxGeometry x="160" y="400" width="120" height="240" as="geometry" />
        </mxCell>
        <mxCell id="j9Q-AicPVGP4m09qeH4A-2" value="Physical&lt;div&gt;Reg&lt;/div&gt;&lt;div&gt;File&lt;/div&gt;" style="rounded=1;whiteSpace=wrap;html=1;fillColor=#dae8fc;strokeColor=#6c8ebf;" vertex="1" parent="1">
          <mxGeometry x="280" y="460" width="120" height="240" as="geometry" />
        </mxCell>
        <mxCell id="j9Q-AicPVGP4m09qeH4A-25" style="edgeStyle=orthogonalEdgeStyle;rounded=1;orthogonalLoop=1;jettySize=auto;html=1;exitX=0.5;exitY=1;exitDx=0;exitDy=0;entryX=0.5;entryY=1;entryDx=0;entryDy=0;" edge="1" parent="1" source="j9Q-AicPVGP4m09qeH4A-3" target="j9Q-AicPVGP4m09qeH4A-2">
          <mxGeometry relative="1" as="geometry" />
        </mxCell>
        <mxCell id="j9Q-AicPVGP4m09qeH4A-27" style="edgeStyle=orthogonalEdgeStyle;rounded=1;orthogonalLoop=1;jettySize=auto;html=1;exitX=0.5;exitY=0;exitDx=0;exitDy=0;entryX=0.5;entryY=0;entryDx=0;entryDy=0;" edge="1" parent="1" source="j9Q-AicPVGP4m09qeH4A-3" target="j9Q-AicPVGP4m09qeH4A-7">
          <mxGeometry relative="1" as="geometry" />
        </mxCell>
        <mxCell id="j9Q-AicPVGP4m09qeH4A-3" value="Execute" style="rounded=1;whiteSpace=wrap;html=1;fillColor=#dae8fc;strokeColor=#6c8ebf;" vertex="1" parent="1">
          <mxGeometry x="400" y="400" width="120" height="240" as="geometry" />
        </mxCell>
        <mxCell id="j9Q-AicPVGP4m09qeH4A-4" value="ROB" style="rounded=1;whiteSpace=wrap;html=1;fillColor=#dae8fc;strokeColor=#6c8ebf;" vertex="1" parent="1">
          <mxGeometry x="520" y="400" width="120" height="240" as="geometry" />
        </mxCell>
        <mxCell id="j9Q-AicPVGP4m09qeH4A-5" value="" style="endArrow=none;dashed=1;html=1;rounded=1;" edge="1" parent="1">
          <mxGeometry width="50" height="50" relative="1" as="geometry">
            <mxPoint x="280" y="780" as="sourcePoint" />
            <mxPoint x="280" y="310" as="targetPoint" />
          </mxGeometry>
        </mxCell>
        <mxCell id="j9Q-AicPVGP4m09qeH4A-6" value="ImmExt" style="rounded=1;whiteSpace=wrap;html=1;fillColor=#d5e8d4;strokeColor=#82b366;" vertex="1" parent="1">
          <mxGeometry x="280" y="400" width="120" height="60" as="geometry" />
        </mxCell>
        <mxCell id="j9Q-AicPVGP4m09qeH4A-7" value="CSR" style="rounded=1;whiteSpace=wrap;html=1;dashed=1;fillColor=#dae8fc;strokeColor=#6c8ebf;" vertex="1" parent="1">
          <mxGeometry x="280" y="340" width="120" height="60" as="geometry" />
        </mxCell>
        <mxCell id="j9Q-AicPVGP4m09qeH4A-8" value="" style="endArrow=none;dashed=1;html=1;rounded=1;" edge="1" parent="1">
          <mxGeometry width="50" height="50" relative="1" as="geometry">
            <mxPoint x="399" y="780" as="sourcePoint" />
            <mxPoint x="399" y="310" as="targetPoint" />
          </mxGeometry>
        </mxCell>
        <mxCell id="j9Q-AicPVGP4m09qeH4A-10" value="" style="endArrow=none;dashed=1;html=1;rounded=1;" edge="1" parent="1">
          <mxGeometry width="50" height="50" relative="1" as="geometry">
            <mxPoint x="520" y="780" as="sourcePoint" />
            <mxPoint x="520" y="310" as="targetPoint" />
          </mxGeometry>
        </mxCell>
        <mxCell id="j9Q-AicPVGP4m09qeH4A-11" value="Several cycles" style="text;html=1;align=center;verticalAlign=middle;whiteSpace=wrap;rounded=1;fillColor=#f8cecc;strokeColor=#b85450;" vertex="1" parent="1">
          <mxGeometry x="430" y="460" width="60" height="30" as="geometry" />
        </mxCell>
        <mxCell id="j9Q-AicPVGP4m09qeH4A-12" value="" style="endArrow=none;dashed=1;html=1;rounded=1;" edge="1" parent="1">
          <mxGeometry width="50" height="50" relative="1" as="geometry">
            <mxPoint x="640" y="780" as="sourcePoint" />
            <mxPoint x="640" y="310" as="targetPoint" />
          </mxGeometry>
        </mxCell>
        <mxCell id="j9Q-AicPVGP4m09qeH4A-21" value="Excp Logic" style="rounded=1;whiteSpace=wrap;html=1;fillColor=#d5e8d4;strokeColor=#82b366;" vertex="1" parent="1">
          <mxGeometry x="520" y="340" width="120" height="60" as="geometry" />
        </mxCell>
        <mxCell id="j9Q-AicPVGP4m09qeH4A-22" value="&lt;div&gt;Architecture&lt;/div&gt;&lt;div&gt;Reg&lt;/div&gt;&lt;div&gt;File&lt;/div&gt;" style="rounded=1;whiteSpace=wrap;html=1;fillColor=#dae8fc;strokeColor=#6c8ebf;dashed=1;" vertex="1" parent="1">
          <mxGeometry x="640" y="400" width="120" height="120" as="geometry" />
        </mxCell>
        <mxCell id="j9Q-AicPVGP4m09qeH4A-28" value="&lt;div&gt;Architecture&lt;/div&gt;&lt;div&gt;RAT&lt;/div&gt;" style="rounded=1;whiteSpace=wrap;html=1;fillColor=#dae8fc;strokeColor=#6c8ebf;" vertex="1" parent="1">
          <mxGeometry x="640" y="520" width="120" height="120" as="geometry" />
        </mxCell>
      </root>
    </mxGraphModel>
  </diagram>
</mxfile>
